<svg id="linkedin-icon" data-name="icon-linkedin" xmlns="http://www.w3.org/2000/svg" viewBox="0 0 16.63 15.89">
	  <title>Linked In</title>
	<path class="cls-1" d="M4,1.84a1.72,1.72,0,0,1-.56,1.32A2.05,2.05,0,0,1,2,3.69H2A2,2,0,0,1,.54,3.16,1.75,1.75,0,0,1,0,1.84,1.72,1.72,0,0,1,.56.52,2,2,0,0,1,2,0,2,2,0,0,1,3.45.52,1.82,1.82,0,0,1,4,1.84ZM3.78,5.16V15.89H.21V5.16ZM16.63,9.74v6.15H13.08V10.15a3.09,3.09,0,0,0-.45-1.78,1.56,1.56,0,0,0-1.38-.64,1.71,1.71,0,0,0-1.12.37,2.53,2.53,0,0,0-.7.93,2.69,2.69,0,0,0-.12.87v6H5.74q0-4.33,0-7V5.68l0-.52H9.31V6.71h0a3.84,3.84,0,0,1,.45-.6,6.76,6.76,0,0,1,.6-.56,2.42,2.42,0,0,1,1-.47,5.42,5.42,0,0,1,1.24-.17,3.84,3.84,0,0,1,3,1.22A5.16,5.16,0,0,1,16.63,9.74Z"/>
</svg>